<svg width="600" height="600" viewBox="0 0 600 600" fill="none" xmlns="http://www.w3.org/2000/svg">
<path d="M501.228 62.208C464.688 39.48 420.888 37.008 382.296 55.932C349.428 72 323.856 99.324 290.952 115.404C246 137.4 196.644 149.424 151.2 170.496C105.756 191.568 62.2564 224.592 45.9604 271.968C26.7604 327.924 33.5044 393.72 62.8684 444.876C110.604 528.024 205.284 557.556 296.436 556.476C489.048 554.208 588.264 320.928 556.836 153.276C549.972 116.952 533.244 82.116 501.228 62.208Z" fill="#3067B1"/>
<path opacity="0.7" d="M501.228 62.208C464.688 39.48 420.888 37.008 382.296 55.932C349.428 72 323.856 99.324 290.952 115.404C246 137.4 196.644 149.424 151.2 170.496C105.756 191.568 62.2564 224.592 45.9604 271.968C26.7604 327.924 33.5044 393.72 62.8684 444.876C110.604 528.024 205.284 557.556 296.436 556.476C489.048 554.208 588.264 320.928 556.836 153.276C549.972 116.952 533.244 82.116 501.228 62.208Z" fill="#3067B1"/>
<path d="M144.733 372.324L134.653 374.148L132.673 363.228L120.697 365.4L122.677 376.32L112.609 378.144L114.853 390.54L124.921 388.716L126.901 399.636L138.877 397.476L136.897 386.544L146.977 384.72L144.733 372.324Z" stroke="#D9E022" stroke-linecap="round" stroke-linejoin="round"/>
<path d="M245.365 205.044L235.705 201.636L239.401 191.172L227.929 187.116L224.233 197.58L214.573 194.172L210.385 206.052L220.033 209.46L216.337 219.936L227.809 223.98L231.517 213.516L241.165 216.924L245.365 205.044Z" stroke="#D9E022" stroke-linecap="round" stroke-linejoin="round"/>
<path d="M489.012 330.108L479.964 334.896L474.768 325.08L464.004 330.768L469.2 340.584L460.152 345.372L466.044 356.508L475.092 351.72L480.288 361.524L491.052 355.836L485.856 346.02L494.904 341.232L489.012 330.108Z" stroke="#D9E022" stroke-linecap="round" stroke-linejoin="round"/>
<path d="M102.637 346.308C106.693 346.308 109.981 343.02 109.981 338.964C109.981 334.908 106.693 331.62 102.637 331.62C98.581 331.62 95.293 334.908 95.293 338.964C95.293 343.02 98.581 346.308 102.637 346.308Z" stroke="#D9E022" stroke-linecap="round" stroke-linejoin="round"/>
<path d="M217.033 240.78C217.033 241.164 216.919 241.54 216.705 241.86C216.491 242.18 216.188 242.429 215.832 242.576C215.477 242.723 215.086 242.762 214.709 242.687C214.332 242.612 213.986 242.426 213.714 242.155C213.442 241.883 213.257 241.536 213.182 241.159C213.107 240.782 213.145 240.391 213.293 240.036C213.44 239.681 213.689 239.377 214.009 239.164C214.328 238.95 214.704 238.836 215.089 238.836C215.604 238.836 216.099 239.041 216.463 239.405C216.828 239.77 217.033 240.264 217.033 240.78Z" stroke="#D9E022" stroke-linecap="round" stroke-linejoin="round"/>
<path d="M128.078 207.432C128.078 208.79 127.675 210.117 126.921 211.245C126.167 212.374 125.095 213.254 123.84 213.774C122.586 214.293 121.206 214.429 119.875 214.164C118.543 213.899 117.32 213.246 116.36 212.286C115.4 211.326 114.746 210.103 114.482 208.771C114.217 207.44 114.353 206.059 114.872 204.805C115.392 203.551 116.271 202.479 117.4 201.725C118.529 200.971 119.856 200.568 121.214 200.568C123.033 200.571 124.777 201.295 126.064 202.582C127.35 203.868 128.074 205.613 128.078 207.432Z" stroke="#D9E022" stroke-linecap="round" stroke-linejoin="round"/>
<path d="M430.512 300.408C430.512 301.177 430.284 301.929 429.857 302.568C429.43 303.207 428.823 303.706 428.112 304C427.402 304.294 426.62 304.371 425.866 304.221C425.112 304.071 424.419 303.701 423.875 303.157C423.331 302.613 422.961 301.921 422.811 301.167C422.661 300.412 422.738 299.631 423.032 298.92C423.327 298.21 423.825 297.602 424.464 297.175C425.104 296.748 425.855 296.52 426.624 296.52C427.655 296.52 428.644 296.93 429.374 297.659C430.103 298.388 430.512 299.377 430.512 300.408Z" stroke="#D9E022" stroke-linecap="round" stroke-linejoin="round"/>
<path d="M391.214 181.908C396.019 181.908 399.914 178.013 399.914 173.208C399.914 168.403 396.019 164.508 391.214 164.508C386.409 164.508 382.514 168.403 382.514 173.208C382.514 178.013 386.409 181.908 391.214 181.908Z" stroke="#D9E022" stroke-linecap="round" stroke-linejoin="round"/>
<path d="M337.644 251.412C338.1 252.096 351.864 254.844 359.004 265.224C363.158 271.187 366.643 277.59 369.396 284.316C369.396 284.316 381.336 291.42 387.456 297.276C393.576 303.132 400.872 310.908 406.5 314.988C412.128 319.068 423.708 326.808 426.624 335.868C426.624 335.868 409.26 383.424 404.352 393.936C399.444 404.448 387.336 426.756 387.336 426.756L365.736 518.52H240.444L236.172 487.044C236.172 487.044 197.772 479.508 181.728 465.444C181.728 465.444 180.216 430.644 186.924 399.6C193.632 368.556 216.444 304.008 231.9 284.292C231.9 284.292 256.584 272.484 278.364 268.692C278.364 268.692 292.5 257.52 301.752 256.332C311.004 255.144 337.644 251.412 337.644 251.412Z" fill="#EAE9E9"/>
<path d="M237.864 501.228C248.988 503.352 258.684 505.188 270.012 505.056C281.34 504.924 292.908 502.38 302.172 495.888C303.962 494.398 305.99 493.222 308.172 492.408C313.092 491.028 317.964 494.28 322.848 495.792C329.04 497.712 335.832 496.8 341.904 494.496C347.976 492.192 353.436 488.604 358.848 485.028C358.048 496.068 357.788 507.128 358.068 518.208L365.784 518.52L385.548 431.556C385.548 431.556 351.744 470.82 335.268 482.544L303.66 474.408C303.66 474.408 300.684 476.88 294.42 478.128C294.42 478.128 291.552 489.156 275.424 489.18C259.296 489.204 236.172 487.044 236.172 487.044L237.864 501.228Z" fill="#D9E022"/>
<path opacity="0.5" d="M237.864 501.228C248.988 503.352 258.684 505.188 270.012 505.056C281.34 504.924 292.908 502.38 302.172 495.888C303.962 494.398 305.99 493.222 308.172 492.408C313.092 491.028 317.964 494.28 322.848 495.792C329.04 497.712 335.832 496.8 341.904 494.496C347.976 492.192 353.436 488.604 358.848 485.028C358.048 496.068 357.788 507.128 358.068 518.208L365.784 518.52L385.548 431.556C385.548 431.556 351.744 470.82 335.268 482.544L303.66 474.408C303.66 474.408 300.684 476.88 294.42 478.128C294.42 478.128 291.552 489.156 275.424 489.18C259.296 489.204 236.172 487.044 236.172 487.044L237.864 501.228Z" fill="#EAE9E9"/>
<path d="M205.476 338.964C205.476 338.964 190.8 410.208 191.544 434.676C191.544 434.676 211.488 429.084 225.408 434.676C225.408 434.676 201.72 432.036 191.52 442.896C181.32 453.756 212.712 482.292 275.52 476.496C275.52 476.496 288.048 480.42 294.408 478.116C294.408 478.116 292.704 489.468 275.412 489.168C258.192 488.484 207.816 488.064 181.716 465.456C181.728 465.468 178.44 399.972 205.476 338.964Z" fill="#D9E022"/>
<path opacity="0.6" d="M205.476 338.964C205.476 338.964 190.8 410.208 191.544 434.676C191.544 434.676 211.488 429.084 225.408 434.676C225.408 434.676 201.72 432.036 191.52 442.896C181.32 453.756 212.712 482.292 275.52 476.496C275.52 476.496 288.048 480.42 294.408 478.116C294.408 478.116 292.704 489.468 275.412 489.168C258.192 488.484 207.816 488.064 181.716 465.456C181.728 465.468 178.44 399.972 205.476 338.964Z" fill="#EAE9E9"/>
<path d="M235.488 352.62C235.488 352.62 239.82 384.168 246.816 390.768C253.812 397.368 286.416 395.208 299.328 402.324C299.328 402.324 311.484 381.264 333.468 368.088L303.66 415.02L277.896 408.936L246.444 404.136L243.804 410.208H239.076C239.076 410.208 238.548 376.536 235.488 352.62Z" fill="#D9E022"/>
<path opacity="0.5" d="M235.488 352.62C235.488 352.62 239.82 384.168 246.816 390.768C253.812 397.368 286.416 395.208 299.328 402.324C299.328 402.324 311.484 381.264 333.468 368.088L303.66 415.02L277.896 408.936L246.444 404.136L243.804 410.208H239.076C239.076 410.208 238.548 376.536 235.488 352.62Z" fill="#EAE9E9"/>
<path d="M358.716 288.36C372.192 296.292 373.704 305.232 376.476 311.616C369.468 313.008 362.22 314.496 356.436 318.684C349.236 323.916 345.336 332.58 342.312 340.992C339.452 348.952 337.048 357.07 335.112 365.304C341.626 353.537 350.884 343.517 362.1 336.096C368.568 331.824 376.56 328.38 383.94 330.792C377.748 333.42 370.74 336.972 369.432 343.572C369.175 344.668 369.221 345.812 369.564 346.884C370.668 349.992 374.532 350.832 377.46 352.344C383.172 355.284 386.148 361.944 386.4 368.4C386.652 374.856 384.672 381.096 382.716 387.204C380.996 392.556 379.276 397.908 377.556 403.26C375.36 410.1 373.128 417.036 369.156 423.036C365.184 429.036 359.22 434.064 352.128 435.24C349.163 435.812 346.094 435.464 343.332 434.244C341.238 433.106 339.292 431.716 337.536 430.104C329.028 423.233 318.804 418.818 307.968 417.336C321.912 426.552 328.512 443.292 334.296 458.976C331.64 454.327 327.814 450.455 323.196 447.744C322.013 446.92 320.606 446.476 319.164 446.472C315.372 446.772 314.172 451.608 311.892 454.632C309.156 458.232 304.152 459.516 299.664 458.94C295.176 458.364 291.048 456.264 287.016 454.14L236.004 427.836L232.404 438.636C232.404 438.636 273.036 471.036 335.292 482.496C335.292 482.496 375.732 450.54 390.06 422.208C404.388 393.876 426.648 335.808 426.648 335.808C426.648 335.808 418.5 320.376 404.532 312.324C404.532 312.324 394.104 307.392 391.908 301.296C389.712 295.2 370.116 284.676 370.116 284.676C370.116 284.676 372.66 291.18 358.716 288.36Z" fill="#D9E022"/>
<path opacity="0.6" d="M358.716 288.36C372.192 296.292 373.704 305.232 376.476 311.616C369.468 313.008 362.22 314.496 356.436 318.684C349.236 323.916 345.336 332.58 342.312 340.992C339.452 348.952 337.048 357.07 335.112 365.304C341.626 353.537 350.884 343.517 362.1 336.096C368.568 331.824 376.56 328.38 383.94 330.792C377.748 333.42 370.74 336.972 369.432 343.572C369.175 344.668 369.221 345.812 369.564 346.884C370.668 349.992 374.532 350.832 377.46 352.344C383.172 355.284 386.148 361.944 386.4 368.4C386.652 374.856 384.672 381.096 382.716 387.204C380.996 392.556 379.276 397.908 377.556 403.26C375.36 410.1 373.128 417.036 369.156 423.036C365.184 429.036 359.22 434.064 352.128 435.24C349.163 435.812 346.094 435.464 343.332 434.244C341.238 433.106 339.292 431.716 337.536 430.104C329.028 423.233 318.804 418.818 307.968 417.336C321.912 426.552 328.512 443.292 334.296 458.976C331.64 454.327 327.814 450.455 323.196 447.744C322.013 446.92 320.606 446.476 319.164 446.472C315.372 446.772 314.172 451.608 311.892 454.632C309.156 458.232 304.152 459.516 299.664 458.94C295.176 458.364 291.048 456.264 287.016 454.14L236.004 427.836L232.404 438.636C232.404 438.636 273.036 471.036 335.292 482.496C335.292 482.496 375.732 450.54 390.06 422.208C404.388 393.876 426.648 335.808 426.648 335.808C426.648 335.808 418.5 320.376 404.532 312.324C404.532 312.324 394.104 307.392 391.908 301.296C389.712 295.2 370.116 284.676 370.116 284.676C370.116 284.676 372.66 291.18 358.716 288.36Z" fill="#EAE9E9"/>
<path d="M354.433 177.9C354.433 177.9 357.157 146.136 343.465 143.1C329.773 140.064 322.081 127.5 322.081 127.5L273.505 141.06L265.969 170.268L270.769 185.052C270.769 185.052 271.777 198.768 271.969 205.548C272.161 212.328 271.969 217.548 277.105 225.78C282.241 234.012 287.017 242.184 298.117 249.3V268.008C298.117 268.008 291.253 288.036 295.045 300.324C295.045 300.324 297.313 302.724 303.577 299.124C309.841 295.524 336.637 277.62 345.985 258.924L348.889 211.392C348.889 211.392 356.605 212.592 359.929 205.56C364.813 198.684 364.621 190.668 362.725 184.14C360.829 177.612 352.669 181.836 352.669 181.836L354.433 177.9Z" fill="#EAE9E9"/>
<path d="M280.597 137.016C280.597 137.016 268.969 152.292 269.641 168.216C270.313 184.14 272.629 195.432 271.957 207.72C271.285 220.008 284.245 240.588 297.529 248.88C307.453 255.084 319.897 254.028 329.557 247.68C340.357 240.48 346.297 227.544 348.469 215.124C348.685 213.924 348.853 212.724 348.973 211.428" stroke="#003276" stroke-linecap="round" stroke-linejoin="round"/>
<path d="M297.529 248.892C297.529 248.892 299.413 266.1 297.529 271.992C295.453 278.46 292.945 293.52 295.129 300.324C297.313 307.128 338.173 278.532 346.069 258.912C346.069 258.912 347.161 220.788 349.885 211.26" stroke="#003276" stroke-linecap="round" stroke-linejoin="round"/>
<path d="M294.08 220.184C294.08 220.184 310.499 230.36 323.101 214.012" stroke="#003276" stroke-linecap="round" stroke-linejoin="round"/>
<path d="M297.9 253.032C297.9 253.032 301.86 265.308 310.404 266.04C318.948 266.772 340.32 249.648 347.604 229.476V219.384C347.604 219.384 341.604 245.784 324.036 250.584C306.468 255.384 298.248 249.276 298.248 249.276L297.9 253.032Z" fill="#003276"/>
<path d="M322.241 216.034C314.464 213.205 308.629 219.971 308.629 219.971C306.741 219.171 304.683 218.859 302.643 219.064C300.604 219.269 298.648 219.984 296.958 221.143C298.41 223.457 300.476 225.323 302.926 226.533C305.377 227.742 308.114 228.248 310.835 227.993C320.755 227.442 322.241 216.034 322.241 216.034Z" stroke="#003276" stroke-linecap="round" stroke-linejoin="round"/>
<path d="M300.828 176.4C300.931 180.207 300.762 184.017 300.324 187.8C299.88 191.196 298.308 194.448 297 197.64C295.8 200.544 293.796 205.008 295.464 208.068C297.36 211.536 303.66 208.068 303.66 208.068" stroke="#003276" stroke-linecap="round" stroke-linejoin="round"/>
<path d="M307.537 207.348C309.661 207.636 312.673 207.348 313.273 203.664" stroke="#003276" stroke-linecap="round" stroke-linejoin="round"/>
<path d="M314.4 171.816C316.454 169.857 319.183 168.765 322.02 168.765C324.858 168.765 327.587 169.857 329.64 171.816" stroke="#003276" stroke-width="2" stroke-linecap="round" stroke-linejoin="round"/>
<path d="M290.184 174.816C290.184 174.816 284.556 167.616 277.188 174.816" stroke="#003276" stroke-width="2" stroke-linecap="round" stroke-linejoin="round"/>
<path d="M344.557 193.02C344.557 193.02 350.977 177.6 359.353 180.912C365.125 183.204 365.473 193.164 362.413 200.112C359.353 207.06 357.817 214.14 347.617 210.18" stroke="#003276" stroke-linecap="round" stroke-linejoin="round"/>
<path d="M345.696 190.656C345.696 190.656 339.528 188.472 338.388 178.452C337.248 168.432 343.392 158.4 341.112 151.2C338.832 144 320.868 147.6 316.776 135.048C316.776 135.048 303.288 145.104 277.176 142.944C277.176 142.944 271.668 152.328 270.708 158.064C269.422 167.033 269.454 176.141 270.804 185.1C270.804 185.412 270.912 185.712 270.972 186.024C272.844 195.792 263.52 172.728 263.772 162.876C264.024 153.024 258.084 140.508 265.824 131.184C273.564 121.86 301.944 116.4 307.536 112.02C313.128 107.64 324 119.304 336.564 123.6C349.128 127.896 359.544 133.02 357.96 150.84C356.376 168.66 358.044 171.048 358.116 180.432C358.116 180.456 352.308 178.272 345.696 190.656Z" fill="#003276"/>
<path d="M322.044 184.8C322.044 187.2 321.12 189.192 319.968 189.192C318.816 189.192 317.904 187.224 317.904 184.8C317.904 182.376 318.828 180.42 319.968 180.42C321.108 180.42 322.044 182.4 322.044 184.8Z" fill="#003276"/>
<path d="M290.185 184.8C290.185 187.2 289.261 189.192 288.121 189.192C286.981 189.192 286.057 187.224 286.057 184.8C286.057 182.376 286.981 180.42 288.121 180.42C289.261 180.42 290.185 182.4 290.185 184.8Z" fill="#003276"/>
<path d="M314.4 190.656C314.4 190.656 318.684 195.204 324.108 195.852" stroke="#003276" stroke-linecap="round" stroke-linejoin="round"/>
<path d="M285.217 195.852C285.217 195.852 293.053 195.3 294.817 190.656" stroke="#003276" stroke-linecap="round" stroke-linejoin="round"/>
<path d="M303.432 303.24C309.264 299.532 316.98 300.924 323.364 303.552C326.868 305.004 330.204 306.828 333.696 308.352C335.422 309.115 337.203 309.749 339.024 310.248C343.404 311.388 341.832 305.952 341.58 303.516C341.22 300.024 340.968 296.52 340.548 293.052C340.375 292.334 340.46 291.578 340.788 290.916C341.218 290.382 341.82 290.013 342.492 289.872C350.184 287.472 358.476 288.528 366.492 288.672C367.22 288.758 367.956 288.62 368.604 288.276C369.804 287.496 369.672 285.732 369.348 284.34C366.576 272.484 356.796 260.688 346.164 254.76" stroke="#003276" stroke-linecap="round" stroke-linejoin="round"/>
<path d="M298.2 256.68C292.908 258.888 287.472 261.18 282.912 264.564C281.258 265.77 279.734 267.146 278.364 268.668C277.261 269.718 276.568 271.126 276.408 272.64C276.438 273.344 276.624 274.033 276.955 274.656C277.285 275.279 277.75 275.82 278.316 276.24C279.122 276.903 280.009 277.459 280.956 277.896C283.164 278.94 285.756 279.96 286.692 282.18C286.92 282.645 287.003 283.167 286.932 283.68C286.813 284.13 286.582 284.543 286.26 284.88C284.436 287.1 281.22 288.816 281.46 291.684C281.616 293.904 283.86 295.284 285.852 296.268C287.844 297.252 290.172 298.272 290.856 300.396" stroke="#003276" stroke-linecap="round" stroke-linejoin="round"/>
<path d="M266.869 144.156C267.649 139.356 272.665 136.26 277.489 135.48C282.313 134.7 287.269 135.48 292.129 135.06C296.194 134.658 300.125 133.389 303.657 131.337C307.188 129.286 310.239 126.5 312.601 123.168" stroke="#EAE9E9" stroke-linecap="round" stroke-linejoin="round"/>
<path d="M272.328 130.668C281.04 125.52 293.28 130.872 301.776 125.376C304.18 123.626 306.273 121.484 307.968 119.04" stroke="#EAE9E9" stroke-linecap="round" stroke-linejoin="round"/>
<path d="M383.46 327.6C352.26 333.828 340.62 356.784 340.62 356.784L303.66 414.996" stroke="#003276" stroke-linecap="round" stroke-linejoin="round"/>
<path d="M357.084 321.312C359.673 318.914 362.605 316.916 365.784 315.384" stroke="#003276" stroke-linecap="round" stroke-linejoin="round"/>
<path d="M335.268 365.256C335.268 365.256 339.204 344.232 350.508 328.74" stroke="#003276" stroke-linecap="round" stroke-linejoin="round"/>
<path d="M239.077 410.112C239.077 410.112 237.457 345.708 231.877 335.868" stroke="#003276" stroke-linecap="round" stroke-linejoin="round"/>
<path d="M369.397 284.316C369.397 284.316 387.397 295.116 395.389 305.268C403.381 315.42 422.269 322.164 426.589 335.868C426.589 335.868 401.713 414.252 375.649 442.584C349.585 470.916 335.233 482.544 335.233 482.544C335.233 482.544 272.533 471.648 231.865 437.496L246.409 404.076C246.409 404.076 287.413 409.26 303.625 415.02C319.837 420.78 335.233 455.664 335.233 455.664" stroke="#003276" stroke-linecap="round" stroke-linejoin="round"/>
<path d="M303.66 415.02C303.66 415.02 332.364 420.6 341.688 433.668" stroke="#003276" stroke-linecap="round" stroke-linejoin="round"/>
<path d="M386.256 428.46L365.784 518.52H240.444L236.172 487.044" stroke="#003276" stroke-linecap="round" stroke-linejoin="round"/>
<path d="M294.42 478.128C287.496 492.312 278.364 489.18 278.364 489.18C207.744 491.856 181.728 465.468 181.728 465.468C181.728 465.468 178.128 428.352 192.012 378.264C205.896 328.176 231.9 284.316 231.9 284.316C243.432 276.648 269.16 270.66 276.42 269.076L278.364 268.668" stroke="#003276" stroke-linecap="round" stroke-linejoin="round"/>
<path d="M278.401 489.18C278.401 489.18 274.669 488.568 275.617 463.824" stroke="#003276" stroke-linecap="round" stroke-linejoin="round"/>
<path d="M233.808 439.08C233.808 439.08 216.168 432.864 194.316 447.984" stroke="#003276" stroke-linecap="round" stroke-linejoin="round"/>
<path d="M198.277 433.668C198.277 433.668 221.389 426.792 231.877 437.808" stroke="#003276" stroke-linecap="round" stroke-linejoin="round"/>
<path d="M229.381 437.184L232.381 438.684L243.805 410.148C243.805 410.148 231.973 408.216 213.229 431.556C219.082 431.624 224.752 433.6 229.381 437.184Z" fill="#999999" stroke="#003276" stroke-miterlimit="10"/>
<path d="M275.58 463.824V476.508C275.58 476.508 291.744 481.308 303.708 474.408L275.58 463.824Z" fill="#999999" stroke="#003276" stroke-miterlimit="10"/>
<path d="M363.193 288.54C363.204 288.774 363.18 289.009 363.121 289.236C362.617 291.216 350.293 337.74 310.849 358.44C310.505 358.624 310.122 358.719 309.733 358.716C309.196 358.716 308.676 358.536 308.253 358.205C307.831 357.874 307.532 357.411 307.404 356.891C307.275 356.37 307.325 355.821 307.545 355.332C307.765 354.843 308.142 354.442 308.617 354.192C344.617 335.316 357.301 292.296 358.405 288.336L363.193 288.54Z" fill="#003276"/>
<path d="M278.317 276.204C272.082 290.446 268.717 305.779 268.417 321.324C268.417 322.584 268.417 323.868 268.417 325.176C268.417 325.5 268.417 325.824 268.417 326.148C268.059 326.16 267.702 326.196 267.349 326.256C266.051 326.461 264.792 326.866 263.617 327.456C263.617 325.692 263.617 323.976 263.617 322.284C264.133 295.356 272.173 277.032 276.457 269.112L278.401 268.704C277.298 269.754 276.605 271.162 276.445 272.676C276.481 273.365 276.667 274.038 276.99 274.647C277.314 275.257 277.767 275.788 278.317 276.204Z" fill="#003276"/>
<path d="M325.573 347.616C328.381 351.516 326.077 357.996 320.413 362.088C314.749 366.18 307.885 366.324 305.065 362.424C302.245 358.524 304.549 352.044 310.213 347.952C315.877 343.86 322.801 343.716 325.573 347.616Z" fill="#EAE9E9" stroke="#003276" stroke-linecap="round" stroke-linejoin="round"/>
<path d="M318.589 345.3C320.581 348.06 318.949 352.644 314.989 355.536C311.029 358.428 306.121 358.536 304.189 355.776C302.257 353.016 303.829 348.432 307.789 345.54C311.749 342.648 316.597 342.552 318.589 345.3Z" fill="#EAE9E9" stroke="#003276" stroke-linecap="round" stroke-linejoin="round"/>
<path d="M286.873 394.008C286.362 394.348 285.74 394.479 285.135 394.374C284.53 394.27 283.989 393.937 283.621 393.446C283.254 392.954 283.089 392.34 283.161 391.73C283.232 391.121 283.534 390.562 284.005 390.168C284.209 390 292.261 383.148 288.733 360.072C288.433 358.116 288.049 356.028 287.533 353.832C286.009 346.836 283.657 337.98 278.845 331.476C277.7 329.76 276.133 328.369 274.294 327.436C272.454 326.502 270.406 326.059 268.345 326.148C267.987 326.16 267.63 326.196 267.277 326.256C265.979 326.461 264.72 326.866 263.545 327.456C259.96 329.308 257.239 332.485 255.961 336.312L255.529 337.512C252.808 344.871 250.583 352.404 248.869 360.06C246.949 369.48 246.301 379.356 249.709 386.256C250.622 388.149 251.923 389.829 253.527 391.188C255.131 392.546 257.003 393.552 259.021 394.14C259.563 394.318 260.024 394.683 260.321 395.17C260.618 395.657 260.731 396.234 260.642 396.797C260.552 397.36 260.265 397.873 259.832 398.244C259.399 398.614 258.847 398.819 258.277 398.82C258.024 398.819 257.773 398.779 257.533 398.7C254.909 397.912 252.477 396.588 250.39 394.812C248.304 393.035 246.609 390.845 245.413 388.38C241.573 380.616 242.077 370.044 244.021 360.06C245.745 351.849 248.079 343.779 251.005 335.916L251.437 334.716C252.38 331.86 253.961 329.256 256.058 327.1C258.156 324.944 260.716 323.293 263.545 322.272C264.524 321.933 265.533 321.684 266.557 321.528C267.169 321.444 267.757 321.384 268.381 321.348C271.19 321.271 273.973 321.899 276.477 323.176C278.98 324.453 281.123 326.337 282.709 328.656C288.061 335.856 290.605 345.372 292.225 352.836C292.789 355.404 293.221 357.816 293.545 360.096C297.337 385.968 287.341 393.672 286.873 394.008Z" fill="#003276" stroke="#003276" stroke-miterlimit="10"/>
<path d="M256.596 398.4C256.596 398.4 265.296 402 267.504 398.4C269.712 394.8 267.924 393.108 264.912 392.82C261.91 392.666 258.902 392.666 255.9 392.82L256.596 398.4Z" fill="#003276" stroke="#003276" stroke-miterlimit="10"/>
<path d="M260.592 397.2C260.435 397.681 260.13 398.1 259.721 398.398C259.311 398.695 258.818 398.856 258.312 398.856C258.059 398.855 257.808 398.815 257.568 398.736C254.944 397.948 252.512 396.624 250.425 394.848C248.339 393.071 246.644 390.881 245.448 388.416C241.608 380.652 242.112 370.08 244.056 360.096H248.856C246.936 369.516 246.288 379.392 249.696 386.292C250.609 388.185 251.91 389.865 253.514 391.224C255.119 392.582 256.99 393.588 259.008 394.176C259.312 394.269 259.594 394.421 259.838 394.624C260.083 394.827 260.284 395.076 260.432 395.357C260.579 395.639 260.669 395.946 260.697 396.263C260.724 396.579 260.689 396.898 260.592 397.2Z" fill="#EAE9E9" stroke="#003276" stroke-linecap="round" stroke-linejoin="round"/>
<path d="M278.857 391.404C278.496 391.834 278.228 392.334 278.073 392.874C277.918 393.414 277.879 393.98 277.957 394.536C278.197 395.358 278.717 396.07 279.428 396.548C280.138 397.026 280.993 397.24 281.845 397.152C283.55 396.925 285.108 396.069 286.213 394.752C287.413 393.408 291.577 384.612 287.725 386.124C284.929 387.18 280.729 388.968 278.857 391.404Z" fill="#003276" stroke="#003276" stroke-miterlimit="10"/>
<path d="M286.873 394.008C286.362 394.348 285.74 394.479 285.135 394.374C284.531 394.27 283.989 393.937 283.622 393.446C283.254 392.954 283.089 392.34 283.161 391.73C283.232 391.121 283.534 390.562 284.005 390.168C284.209 390 292.261 383.148 288.733 360.072H293.533C297.337 385.968 287.341 393.672 286.873 394.008Z" fill="#EAE9E9" stroke="#003276" stroke-linecap="round" stroke-linejoin="round"/>
<path opacity="0.2" d="M308.4 181.908C308.4 181.908 323.508 174.06 337.392 181.908C337.392 181.908 337.62 193.488 332.376 198.252C330.516 199.944 321.996 200.232 318.768 199.944C305.664 198.756 308.4 181.908 308.4 181.908Z" fill="#EAE9E9"/>
<path opacity="0.2" d="M298.921 181.908C298.921 181.908 283.813 174.06 269.941 181.908C269.941 181.908 269.713 193.488 274.945 198.252C276.805 199.944 285.337 200.232 288.553 199.944C301.657 198.756 298.921 181.908 298.921 181.908Z" fill="#EAE9E9"/>
<path d="M308.4 181.908C308.4 181.908 323.508 174.06 337.392 181.908C337.392 181.908 337.62 193.488 332.376 198.252C330.516 199.944 321.996 200.232 318.768 199.944C305.664 198.756 308.4 181.908 308.4 181.908Z" stroke="#003276" stroke-miterlimit="10"/>
<path d="M298.921 181.908C298.921 181.908 283.813 174.06 269.941 181.908C269.941 181.908 269.713 193.488 274.945 198.252C276.805 199.944 285.337 200.232 288.553 199.944C301.657 198.756 298.921 181.908 298.921 181.908Z" stroke="#003276" stroke-miterlimit="10"/>
<path d="M298.92 181.908C298.92 181.908 302.304 179.424 308.4 181.908" stroke="#003276" stroke-miterlimit="10"/>
<path d="M337.393 181.908L343.705 184.836" stroke="#003276" stroke-miterlimit="10"/>
<path d="M95.7832 550.464L140.195 508.512H492.683L519.371 550.464H95.7832Z" fill="#EAE9E9" stroke="#003276" stroke-linecap="round" stroke-linejoin="round"/>
<path d="M519.371 550.464H95.7832V561.756H519.371V550.464Z" fill="#003276" stroke="#003276" stroke-linecap="round" stroke-linejoin="round"/>
<path d="M140.195 540.096V531.396H209.795V540.096H196.367H140.195Z" fill="#EAE9E9" stroke="#003276" stroke-miterlimit="10"/>
<path d="M140.195 531.396L181.307 503.82L236.171 505.116L209.795 531.396H140.195Z" fill="#EAE9E9" stroke="#003276" stroke-linecap="round" stroke-linejoin="round"/>
<path d="M209.795 540.096L236.171 513.672V505.116L209.795 531.396V540.096Z" fill="#EAE9E9" stroke="#003276" stroke-linecap="round" stroke-linejoin="round"/>
<path d="M207.911 529.2C207.911 529.2 202.355 530.304 202.355 535.116C202.355 539.928 207.155 541.344 207.155 541.344" stroke="#003276" stroke-width="2" stroke-linecap="round" stroke-linejoin="round"/>
<path d="M202.355 529.2C202.355 529.2 196.799 530.304 196.799 535.116C196.799 539.928 201.599 541.344 201.599 541.344" stroke="#003276" stroke-width="2" stroke-linecap="round" stroke-linejoin="round"/>
<path d="M196.8 529.2C196.8 529.2 191.244 530.304 191.244 535.116C191.244 539.928 196.044 541.344 196.044 541.344" stroke="#003276" stroke-width="2" stroke-linecap="round" stroke-linejoin="round"/>
<path d="M191.243 529.2C191.243 529.2 185.688 530.304 185.688 535.116C185.688 539.928 190.487 541.344 190.487 541.344" stroke="#003276" stroke-width="2" stroke-linecap="round" stroke-linejoin="round"/>
<path d="M185.687 529.2C185.687 529.2 180.131 530.304 180.131 535.116C180.131 539.928 184.931 541.344 184.931 541.344" stroke="#003276" stroke-width="2" stroke-linecap="round" stroke-linejoin="round"/>
<path d="M180.132 529.2C180.132 529.2 174.576 530.304 174.576 535.116C174.576 539.928 179.376 541.344 179.376 541.344" stroke="#003276" stroke-width="2" stroke-linecap="round" stroke-linejoin="round"/>
<path d="M174.576 529.2C174.576 529.2 169.02 530.304 169.02 535.116C169.02 539.928 173.82 541.344 173.82 541.344" stroke="#003276" stroke-width="2" stroke-linecap="round" stroke-linejoin="round"/>
<path d="M169.019 529.2C169.019 529.2 163.463 530.304 163.463 535.116C163.463 539.928 168.263 541.344 168.263 541.344" stroke="#003276" stroke-width="2" stroke-linecap="round" stroke-linejoin="round"/>
<path d="M162.779 529.2C162.779 529.2 157.223 530.304 157.223 535.116C157.223 539.928 162.023 541.344 162.023 541.344" stroke="#003276" stroke-width="2" stroke-linecap="round" stroke-linejoin="round"/>
<path d="M156.527 529.2C156.527 529.2 150.971 530.304 150.971 535.116C150.971 539.928 155.771 541.344 155.771 541.344" stroke="#003276" stroke-width="2" stroke-linecap="round" stroke-linejoin="round"/>
<path d="M149.579 529.2C149.579 529.2 144.023 530.304 144.023 535.116C144.023 539.928 148.823 541.344 148.823 541.344" stroke="#003276" stroke-width="2" stroke-linecap="round" stroke-linejoin="round"/>
<path d="M184.798 510.576C180.966 512.69 177.928 515.998 176.146 519.996C181.198 518.4 185.194 514.8 189.022 511.2L184.87 521.496C186.782 521.341 188.63 520.737 190.264 519.734C191.899 518.732 193.274 517.358 194.278 515.724C193.95 515.866 193.654 516.076 193.412 516.34C193.17 516.603 192.986 516.916 192.873 517.255C192.759 517.595 192.719 517.955 192.755 518.312C192.79 518.668 192.9 519.013 193.078 519.324C196.558 518.82 198.778 515.46 200.53 512.412C200.852 514.108 200.977 515.835 200.902 517.56C203.813 517.977 206.781 517.6 209.494 516.468" stroke="#003276" stroke-width="0.75" stroke-linecap="round" stroke-linejoin="round"/>
<path d="M490.331 466.488H369.359V532.908H490.331V466.488Z" fill="#EAE9E9" stroke="#003276" stroke-linecap="round" stroke-linejoin="round"/>
<path d="M368.891 532.896L349.439 514.404V447.984L368.891 466.488V532.896Z" fill="#EAE9E9" stroke="#003276" stroke-linecap="round" stroke-linejoin="round"/>
<path d="M490.332 466.488L470.88 447.984H349.92L369.36 466.488H490.332Z" fill="#EAE9E9" stroke="#003276" stroke-linecap="round" stroke-linejoin="round"/>
<path d="M445.848 491.4H435.156V480.216H420.084V491.4H408.42V506.472H420.084V517.644H435.156V506.472H445.848V491.4Z" fill="#D9E022" stroke="#003276" stroke-miterlimit="10"/>
<path d="M428.796 466.488L409.344 447.984" stroke="#003276" stroke-linecap="round" stroke-linejoin="round"/>
<path d="M173.095 184.194C187.205 170.083 187.205 147.206 173.095 133.095C158.984 118.985 136.107 118.985 121.996 133.095C107.886 147.206 107.886 170.083 121.996 184.194C136.107 198.304 158.984 198.304 173.095 184.194Z" fill="#EAE9E9" stroke="#003276" stroke-linecap="round" stroke-linejoin="round"/>
<path d="M177.6 153.108C177.6 155.527 176.841 157.884 175.431 159.85C174.021 161.815 172.031 163.289 169.74 164.064L153.6 169.5L133.956 176.136C131.062 177.087 127.91 176.856 125.185 175.493C122.461 174.13 120.386 171.746 119.412 168.86C118.439 165.973 118.645 162.819 119.987 160.084C121.329 157.35 123.697 155.256 126.576 154.26L144.42 148.26L162.348 142.26C164.082 141.677 165.931 141.513 167.74 141.784C169.55 142.055 171.27 142.751 172.758 143.816C174.246 144.881 175.46 146.284 176.299 147.91C177.139 149.536 177.581 151.338 177.588 153.168L177.6 153.108Z" fill="#EAE9E9"/>
<path d="M177.6 153.108C177.6 155.527 176.841 157.884 175.431 159.85C174.021 161.815 172.031 163.289 169.74 164.064L153.6 169.5C153.17 161.549 149.914 154.012 144.42 148.248L162.348 142.248C164.082 141.665 165.931 141.501 167.74 141.772C169.55 142.043 171.27 142.739 172.758 143.804C174.246 144.869 175.46 146.272 176.299 147.898C177.139 149.524 177.581 151.326 177.588 153.156L177.6 153.108Z" fill="#D9E022"/>
<path d="M177.6 153.108C177.6 155.527 176.841 157.884 175.431 159.85C174.021 161.815 172.031 163.289 169.74 164.064L153.6 169.5L133.956 176.136C131.062 177.087 127.91 176.856 125.185 175.493C122.461 174.13 120.386 171.746 119.412 168.86C118.439 165.973 118.645 162.819 119.987 160.084C121.329 157.35 123.697 155.256 126.576 154.26L144.42 148.26L162.348 142.26C164.082 141.677 165.931 141.513 167.74 141.784C169.55 142.055 171.27 142.751 172.758 143.816C174.246 144.881 175.46 146.284 176.299 147.91C177.139 149.536 177.581 151.338 177.588 153.168L177.6 153.108Z" stroke="#003276" stroke-linecap="round" stroke-linejoin="round"/>
<path d="M153.6 169.5C153.233 161.534 149.968 153.976 144.42 148.248" stroke="#003276" stroke-linecap="round" stroke-linejoin="round"/>
<path d="M173.734 148.8C174.492 150.076 174.875 151.54 174.838 153.024" stroke="#EAE9E9" stroke-linecap="round" stroke-linejoin="round"/>
<path d="M148.979 150L163.379 145.2C164.67 144.757 166.044 144.606 167.401 144.757C168.758 144.909 170.064 145.359 171.227 146.076" stroke="#EAE9E9" stroke-linecap="round" stroke-linejoin="round"/>
<path d="M393.05 109.627C411.427 101.849 420.019 80.6463 412.241 62.2693C404.463 43.8924 383.261 35.3001 364.884 43.078C346.507 50.8558 337.915 72.0585 345.692 90.4355C353.47 108.812 374.673 117.405 393.05 109.627Z" fill="#EAE9E9" stroke="#003276" stroke-linecap="round" stroke-linejoin="round"/>
<path d="M391.428 91.476L359.916 80.928C357.295 80.0472 355.132 78.1619 353.901 75.6867C352.67 73.2115 352.473 70.3489 353.352 67.728C354.233 65.1078 356.118 62.9445 358.593 61.7136C361.068 60.4828 363.931 60.2851 366.552 61.164L398.064 71.7C400.682 72.5836 402.843 74.4691 404.074 76.9435C405.304 79.4178 405.503 82.279 404.628 84.9C403.747 87.5205 401.862 89.6846 399.387 90.9174C396.913 92.1502 394.05 92.3511 391.428 91.476Z" fill="#D9E022"/>
<path d="M368.34 80.088L373.62 67.476" stroke="#003276" stroke-linecap="round" stroke-linejoin="round"/>
<path d="M385.703 85.86L390.959 73.284" stroke="#003276" stroke-linecap="round" stroke-linejoin="round"/>
<path d="M372.695 80.832C373.285 80.832 373.763 80.3539 373.763 79.764C373.763 79.1742 373.285 78.696 372.695 78.696C372.105 78.696 371.627 79.1742 371.627 79.764C371.627 80.3539 372.105 80.832 372.695 80.832Z" fill="#003276"/>
<path d="M383.195 82.908C383.195 83.1192 383.132 83.3257 383.015 83.5013C382.897 83.677 382.73 83.8139 382.535 83.8947C382.34 83.9755 382.125 83.9967 381.918 83.9555C381.711 83.9143 381.521 83.8125 381.371 83.6632C381.222 83.5138 381.12 83.3235 381.079 83.1164C381.038 82.9092 381.059 82.6944 381.14 82.4993C381.221 82.3041 381.358 82.1373 381.533 82.02C381.709 81.9026 381.915 81.84 382.127 81.84C382.41 81.84 382.682 81.9525 382.882 82.1528C383.082 82.3531 383.195 82.6247 383.195 82.908Z" fill="#003276"/>
<path d="M376.836 71.328C377.425 71.328 377.904 70.8499 377.904 70.26C377.904 69.6702 377.425 69.192 376.836 69.192C376.246 69.192 375.768 69.6702 375.768 70.26C375.768 70.8499 376.246 71.328 376.836 71.328Z" fill="#003276"/>
<path d="M387.179 73.308C387.179 73.5193 387.116 73.7257 386.999 73.9014C386.882 74.077 386.715 74.2139 386.52 74.2947C386.325 74.3756 386.11 74.3967 385.903 74.3555C385.695 74.3143 385.505 74.2126 385.356 74.0632C385.206 73.9138 385.105 73.7235 385.063 73.5164C385.022 73.3092 385.043 73.0945 385.124 72.8993C385.205 72.7042 385.342 72.5374 385.518 72.42C385.693 72.3027 385.9 72.24 386.111 72.24C386.394 72.24 386.666 72.3525 386.866 72.5528C387.066 72.7531 387.179 73.0248 387.179 73.308Z" fill="#003276"/>
<path d="M391.428 91.476L359.916 80.928C357.295 80.0472 355.132 78.1619 353.901 75.6867C352.67 73.2115 352.473 70.3489 353.352 67.728C354.233 65.1078 356.118 62.9445 358.593 61.7136C361.068 60.4828 363.931 60.2851 366.552 61.164L398.064 71.7C400.682 72.5836 402.843 74.4691 404.074 76.9435C405.304 79.4178 405.503 82.279 404.628 84.9C403.747 87.5205 401.862 89.6846 399.387 90.9174C396.913 92.1502 394.05 92.3511 391.428 91.476Z" stroke="#003276" stroke-linecap="round" stroke-linejoin="round"/>
<path d="M242.568 110.52C262.523 110.52 278.7 94.3432 278.7 74.388C278.7 54.4329 262.523 38.256 242.568 38.256C222.612 38.256 206.436 54.4329 206.436 74.388C206.436 94.3432 222.612 110.52 242.568 110.52Z" fill="#EAE9E9" stroke="#003276" stroke-linecap="round" stroke-linejoin="round"/>
<path d="M263.267 75.312V90.12C263.267 93.876 260.867 96.924 257.927 96.924H227.207C224.255 96.924 221.867 93.876 221.867 90.12V75.312C221.867 71.556 224.267 68.508 227.207 68.508H232.259V59.916H252.659V68.508H257.891C260.867 68.508 263.267 71.556 263.267 75.312Z" fill="#EAE9E9" stroke="#003276" stroke-linecap="round" stroke-linejoin="round"/>
<path d="M263.255 77.016H221.867V86.196H263.255V77.016Z" fill="#D9E022" stroke="#003276" stroke-miterlimit="10"/>
<path d="M235.079 49.86H250.247C251.96 49.86 253.602 50.5402 254.812 51.7509C256.023 52.9617 256.703 54.6038 256.703 56.316V63.024H228.611V56.316C228.611 55.4672 228.779 54.6267 229.104 53.8426C229.429 53.0586 229.906 52.3463 230.506 51.7467C231.107 51.147 231.82 50.6717 232.605 50.348C233.39 50.0242 234.231 49.8584 235.079 49.86Z" fill="#D9E022" stroke="#003276" stroke-miterlimit="10"/>
<path d="M233.52 50.268V63.024" stroke="#003276" stroke-linecap="round" stroke-linejoin="round"/>
<path d="M240.154 49.86V63.024" stroke="#003276" stroke-linecap="round" stroke-linejoin="round"/>
<path d="M246.791 49.86V63.024" stroke="#003276" stroke-linecap="round" stroke-linejoin="round"/>
<path d="M253.428 50.604V63.024" stroke="#003276" stroke-linecap="round" stroke-linejoin="round"/>
<path d="M149.997 271.914C153.226 252.222 139.879 233.641 120.186 230.413C100.494 227.185 81.9134 240.531 78.6851 260.224C75.4569 279.916 88.8036 298.497 108.496 301.725C128.188 304.953 146.769 291.607 149.997 271.914Z" fill="#EAE9E9" stroke="#003276" stroke-linecap="round" stroke-linejoin="round"/>
<path d="M132.671 275.39C136.606 267.068 131.195 256.254 120.585 251.236C109.974 246.219 98.1824 248.897 94.2469 257.219C90.3114 265.541 95.7226 276.355 106.333 281.372C116.944 286.39 128.735 283.712 132.671 275.39Z" fill="#D9E022" stroke="#003276" stroke-linecap="round" stroke-linejoin="round"/>
<path d="M133.982 272.56C137.673 264.753 132.065 254.357 121.454 249.339C110.844 244.321 99.2495 246.582 95.5577 254.388C91.8659 262.195 97.4745 272.591 108.085 277.609C118.696 282.627 130.29 280.366 133.982 272.56Z" fill="#D9E022" stroke="#003276" stroke-linecap="round" stroke-linejoin="round"/>
<path d="M120.899 252.792L107.783 271.236" stroke="#003276" stroke-linecap="round" stroke-linejoin="round"/>
<path d="M113.004 249.804C114.762 250.041 116.493 250.443 118.176 251.004" stroke="#EAE9E9" stroke-linecap="round" stroke-linejoin="round"/>
<path d="M101.351 267.168C101.351 267.168 94.6549 259.836 101.195 252.768C102.704 251.23 104.67 250.22 106.799 249.888" stroke="#EAE9E9" stroke-linecap="round" stroke-linejoin="round"/>
<path d="M530.595 271.935C533.823 252.243 520.476 233.662 500.784 230.434C481.092 227.206 462.511 240.552 459.283 260.245C456.055 279.937 469.401 298.518 489.094 301.746C508.786 304.974 527.367 291.627 530.595 271.935Z" fill="#EAE9E9" stroke="#003276" stroke-linecap="round" stroke-linejoin="round"/>
<path d="M510.439 269.35C510.233 269.64 510.027 269.939 509.811 270.229C505.763 275.723 499.525 280.847 494.903 281.858V281.788C490.415 280.804 484.374 275.925 480.326 270.598C480.102 270.308 479.887 270.009 479.68 269.719C475.785 264.252 474.142 258.512 478.477 256.139C487.291 251.322 494.903 261.65 494.903 261.65C494.903 261.65 502.532 251.401 511.328 256.209C515.546 258.512 514.101 264.014 510.439 269.35Z" fill="#D9E022" stroke="#003276" stroke-miterlimit="10"/>
<path d="M510.902 269.174C510.694 269.479 510.486 269.793 510.269 270.097H508.026L505.457 273.559L503.711 263.293L500.997 270.273H494.584L491.3 275.858L488.767 264.548L485.502 270.448H480.554C480.327 270.143 480.11 269.829 479.902 269.525H484.977L489.129 262.019L491.68 273.421L494.095 269.312H500.427L504.046 259.858L505.981 271.27L507.564 269.137L510.902 269.174Z" fill="#EAE9E9"/>
<path d="M460.152 195.18C480.107 195.18 496.284 179.003 496.284 159.048C496.284 139.093 480.107 122.916 460.152 122.916C440.196 122.916 424.02 139.093 424.02 159.048C424.02 179.003 440.196 195.18 460.152 195.18Z" fill="#EAE9E9" stroke="#003276" stroke-linecap="round" stroke-linejoin="round"/>
<path d="M457.439 142.344C457.787 143.124 455.615 144.852 452.639 146.208C449.663 147.564 446.879 148.032 446.531 147.24C446.183 146.448 448.343 144.732 451.331 143.376C454.319 142.02 457.079 141.6 457.439 142.344Z" fill="#EAE9E9" stroke="#003276" stroke-linecap="round" stroke-linejoin="round"/>
<path d="M473.7 175.86L462.888 181.092L453.192 161.124L446.496 147.324L457.308 142.08L463.836 155.544L473.7 175.86Z" fill="#EAE9E9" stroke="#003276" stroke-linecap="round" stroke-linejoin="round"/>
<path d="M448.5 151.44L453.192 149.268Z" fill="#D9E022"/>
<path d="M448.5 151.44L453.192 149.268" stroke="#003276" stroke-linecap="round" stroke-linejoin="round"/>
<path d="M450.539 155.784L455.231 153.612Z" fill="#D9E022"/>
<path d="M450.539 155.784L455.231 153.612" stroke="#003276" stroke-linecap="round" stroke-linejoin="round"/>
<path d="M467.027 179.088L472.607 186.408L469.823 177.732L467.027 179.088Z" fill="#EAE9E9" stroke="#003276" stroke-linecap="round" stroke-linejoin="round"/>
<path d="M473.699 175.86C471.168 178.394 467.938 180.116 464.423 180.804L462.887 181.092L453.191 161.124L463.835 155.544L473.699 175.86Z" fill="#D9E022" stroke="#003276" stroke-miterlimit="10"/>
<path d="M455.23 164.916L459.646 162.876" stroke="#003276" stroke-linecap="round" stroke-linejoin="round"/>
<path d="M457.654 169.56L461.986 167.58Z" fill="#D9E022"/>
<path d="M457.654 169.56L461.986 167.58" stroke="#003276" stroke-linecap="round" stroke-linejoin="round"/>
<path d="M450.238 145.5L446.818 137.808L449.506 136.284L453.19 144.072L450.238 145.5Z" fill="#EAE9E9" stroke="#003276" stroke-linecap="round" stroke-linejoin="round"/>
<path d="M456.107 135.348L455.291 133.548L440.891 139.992L441.707 141.792C442.043 142.56 445.535 141.72 449.519 139.944C453.503 138.168 456.443 136.104 456.107 135.348Z" fill="#EAE9E9" stroke="#003276" stroke-linecap="round" stroke-linejoin="round"/>
<path d="M455.291 133.548C454.955 132.792 451.451 133.62 447.479 135.396C443.507 137.172 440.555 139.236 440.891 139.992C441.227 140.748 444.731 139.92 448.703 138.132C452.675 136.344 455.627 134.304 455.291 133.548Z" fill="#EAE9E9" stroke="#003276" stroke-linecap="round" stroke-linejoin="round"/>
</svg>
