<svg width="509" height="90" viewBox="0 0 509 90" fill="none" xmlns="http://www.w3.org/2000/svg">
<path d="M38.888 0.271996H62.952L100.584 90H75.624L50.28 23.696L24.424 90H0.36L38.888 0.271996ZM23.4 56.208H75.752V73.872H23.4V56.208ZM123.08 0.271996H146.504L167.752 39.056L188.488 0.271996H211.912L169.16 80.4H166.216L123.08 0.271996ZM156.104 50.576H179.528V90H156.104V50.576Z" fill="#D9E022"/>
<path d="M250.644 0.271996H274.068V70.288H312.084V90H250.644V0.271996ZM353.489 0.271996H376.913V90H353.489V0.271996ZM425.084 0.271996H445.692L492.668 62.992L486.524 65.04V0.271996H508.156V90H487.676L440.7 27.536L446.972 25.488V90H425.084V0.271996Z" fill="#2B6EB6"/>
</svg>
