<svg width="140" height="36" viewBox="0 0 140 36" fill="none" xmlns="http://www.w3.org/2000/svg">
<path d="M52.0879 5.97073H57.4794L67.3711 29.8313H61.8014L54.6277 11.3622L47.4094 29.8313H41.9512L52.0879 5.97073ZM47.6099 20.853H61.3336V25.0414H47.6099V20.853Z" fill="#2B6EB6"/>
<path d="M65.4121 5.9707H70.7144L76.6628 16.8428L82.4775 5.9707H87.7575L76.997 26.3113H76.2841L65.4121 5.9707ZM74.0339 19.4939H79.2917V29.809H74.0339V19.4939Z" fill="#2B6EB6"/>
<path d="M90.207 5.9707H95.4648V25.2864H105.401V29.809H90.207V5.9707Z" fill="#2B6EB6"/>
<path d="M108.564 5.9707H113.822V29.8313H108.564V5.9707Z" fill="#2B6EB6"/>
<path d="M118.971 5.9707H123.761L136.415 23.4819L135.056 23.9497V5.9707H140.002V29.8313H135.256L122.602 12.3424L124.006 11.8746V29.8313H118.993V5.9707H118.971Z" fill="#2B6EB6"/>
<path d="M28.9845 16.3972L27.3136 19.494L24.3282 24.9746L23.593 26.3336L26.7789 35.7798H36.0022L28.9845 16.3972ZM4.50028 23.3482L0 35.7798H9.11195L11.0947 29.8759L4.50028 23.3482ZM23.0361 0H12.9439L11.5849 3.7874L6.14889 18.781L13.9018 21.6104L17.9343 9.62445L19.8502 15.3278L23.9049 10.8275L26.066 8.44367L23.0361 0Z" fill="#3067B1"/>
<path d="M28.2056 14.303L22.8365 24.1503L17.5565 33.8861L11.7195 28.1159L5.125 21.5882L5.30323 21.1426L5.59285 20.3629L13.3681 23.2145L14.6157 23.6601L20.475 17.1547L26.7352 10.2483L27.4927 12.2756L28.2056 14.303Z" fill="#D9E022"/>
</svg>
