<svg width="552" height="549" viewBox="0 0 552 549" fill="none" xmlns="http://www.w3.org/2000/svg">
<path d="M444.4 251.7L418.7 299L373 382.9L361.6 403.9L410.4 548.8H552L444.4 251.7ZM69.1 358L0 548.9H139.9L170.4 458.4L69.1 358ZM353.4 0.100098H198.6L177.6 58.2001L94.4 288.1L213.3 331.6L275.3 147.9L304.8 235.3L367.2 166.3L400.3 129.7L353.4 0.100098Z" fill="#3067B1"/>
<path d="M432.7 219.3L350.4 370.6L269.1 519.8L179.6 431.2L78.7002 331.3L81.3002 324.2L85.6002 312.4L205 356L224 363L314.2 263.2L410.2 157L421.6 188.4L432.7 219.3Z" fill="#D9E022"/>
</svg>
